<svg xmlns="http://www.w3.org/2000/svg" viewBox="0 0 36 36">
<path fill="#FFCC4D" d="M 36,18
c 0,9.941,-8.059,18,-18,18
S 0,27.941,0,18,8.059,0,18,0
s 18,8.059,18,18"/>
	<path fill="#664500" d="M 22,27
c 0,2.763,-1.791,3,-4,3,-2.21,0,-4,-0.237,-4,-3,0,-2.761,1.79,-6,4,-6,2.209,0,4,3.239,4,6
z "/>
	<path fill="#5DADEC" d="M 24,16
h 4
v 19
l -4,-0.046
V 16
z 
M 8,35
l 4,-0.04
V 16
H 8
v 19
z "/>
	<ellipse fill="#5DADEC"  cx="18" cy="34" rx="18" ry="2" />
	<ellipse fill="#E75A70" cx="18" cy="27" rx="3" ry="2" />
	<path fill="#664500" d="M 11.333333333333332,13.6875
c 0,0.9209999999999999,-0.597,1,-1.3333333333333333,1,-0.7366666666666666,0,-1.3333333333333333,-0.07899999999999999,-1.3333333333333333,-1,0,-0.9203333333333333,0.5966666666666667,-2,1.3333333333333333,-2,0.7363333333333333,0,1.3333333333333333,1.0796666666666666,1.3333333333333333,2
z "/>
	<path fill="#664500" d="M 11.333333333333332,13.6875
m 2.6666666666666665,-4
c -0.04133333333333333,0,-0.08333333333333333,-0.007666666666666666,-0.12366666666666666,-0.023999999999999997,-1.7429999999999999,-0.6970000000000001,-2.457333333333333,-1.7469999999999999,-2.487,-1.7913333333333332,-0.10233333333333333,-0.15333333333333332,-0.061,-0.3603333333333333,0.09233333333333334,-0.4623333333333333,0.153,-0.102,0.359,-0.06133333333333333,0.46166666666666667,0.09133333333333334,0.006333333333333333,0.009,0.6433333333333333,0.9283333333333333,2.1803333333333335,1.5429999999999997,0.17099999999999999,0.06866666666666665,0.2543333333333333,0.2623333333333333,0.186,0.43333333333333335,-0.05233333333333333,0.13066666666666665,-0.17766666666666667,0.21,-0.30966666666666665,0.21
z 
M 6,9.6875
c -0.13233333333333333,0,-0.2573333333333333,-0.07933333333333333,-0.30966666666666665,-0.20966666666666667,-0.06833333333333333,-0.17099999999999999,0.014666666666666665,-0.365,0.18566666666666667,-0.43333333333333335,1.5373333333333332,-0.6146666666666667,2.1743333333333332,-1.534,2.1806666666666663,-1.5429999999999997,0.10266666666666666,-0.152,0.30966666666666665,-0.1923333333333333,0.4623333333333333,-0.09,0.15233333333333332,0.10266666666666666,0.19366666666666665,0.30833333333333335,0.09166666666666667,0.46099999999999997,-0.029666666666666664,0.044333333333333336,-0.744,1.0943333333333332,-2.4866666666666664,1.7913333333333332
C 6.083333333333333,9.679833333333333,6.041333333333333,9.6875,6,9.6875
z "/>
	<path fill="#5DADEC" d="M 12,10.020833333333332
h 1.3333333333333333
v 6.333333333333333
l -1.3333333333333333,-0.015333333333333332
V 10.020833333333332
z 
M 6.666666666666666,16.354166666666664
l 1.3333333333333333,-0.013333333333333332
V 10.020833333333332
H 6.666666666666666
v 6.333333333333333
z "/>
	<path fill="#664500" d="M 8.999666666666666,10.6875
c -0.049999999999999996,0,-0.10099999999999999,-0.011333333333333334,-0.14866666666666667,-0.034999999999999996,-1.1706666666666665,-0.5853333333333333,-2.3566666666666665,-0.005999999999999999,-2.368333333333333,0,-0.16499999999999998,0.08299999999999999,-0.365,0.015333333333333332,-0.44733333333333336,-0.149,-0.08233333333333333,-0.16466666666666666,-0.015666666666666666,-0.365,0.149,-0.44733333333333336,0.06066666666666666,-0.03,1.4993333333333334,-0.7323333333333333,2.965,0,0.16466666666666666,0.08233333333333333,0.2313333333333333,0.2826666666666666,0.149,0.44733333333333336,-0.05866666666666666,0.11666666666666665,-0.17633333333333334,0.184,-0.29866666666666664,0.184
z 
m 4.666666666666666,0
c -0.049999999999999996,0,-0.10099999999999999,-0.011333333333333334,-0.14866666666666667,-0.034999999999999996,-1.1709999999999998,-0.5853333333333333,-2.3566666666666665,-0.005999999999999999,-2.368333333333333,0,-0.16466666666666666,0.08266666666666667,-0.3646666666666667,0.015666666666666666,-0.44733333333333336,-0.149,-0.08233333333333333,-0.16466666666666666,-0.015666666666666666,-0.365,0.149,-0.44733333333333336,0.06066666666666666,-0.03,1.5003333333333333,-0.732,2.965,0,0.16466666666666666,0.08233333333333333,0.2313333333333333,0.2826666666666666,0.149,0.44733333333333336,-0.05866666666666666,0.11666666666666665,-0.17633333333333334,0.184,-0.29866666666666664,0.184
z "/>
	<ellipse fill="#5DADEC"  cx="10" cy="16.020833333333332" rx="6" ry="0.6666666666666666" />
	<ellipse fill="#E75A70" cx="10" cy="13.6875" rx="1" ry="0.6666666666666666" />
	<path fill="#664500" d="M 27.333333333333332,13.6875
c 0,0.9209999999999999,-0.597,1,-1.3333333333333333,1,-0.7366666666666666,0,-1.3333333333333333,-0.07899999999999999,-1.3333333333333333,-1,0,-0.9203333333333333,0.5966666666666667,-2,1.3333333333333333,-2,0.7363333333333333,0,1.3333333333333333,1.0796666666666666,1.3333333333333333,2
z "/>
	<path fill="#664500" d="M 27.333333333333332,13.6875
m 2.6666666666666665,-4
c -0.04133333333333333,0,-0.08333333333333333,-0.007666666666666666,-0.12366666666666666,-0.023999999999999997,-1.7429999999999999,-0.6970000000000001,-2.457333333333333,-1.7469999999999999,-2.487,-1.7913333333333332,-0.10233333333333333,-0.15333333333333332,-0.061,-0.3603333333333333,0.09233333333333334,-0.4623333333333333,0.153,-0.102,0.359,-0.06133333333333333,0.46166666666666667,0.09133333333333334,0.006333333333333333,0.009,0.6433333333333333,0.9283333333333333,2.1803333333333335,1.5429999999999997,0.17099999999999999,0.06866666666666665,0.2543333333333333,0.2623333333333333,0.186,0.43333333333333335,-0.05233333333333333,0.13066666666666665,-0.17766666666666667,0.21,-0.30966666666666665,0.21
z 
M 22,9.6875
c -0.13233333333333333,0,-0.2573333333333333,-0.07933333333333333,-0.30966666666666665,-0.20966666666666667,-0.06833333333333333,-0.17099999999999999,0.014666666666666665,-0.365,0.18566666666666667,-0.43333333333333335,1.5373333333333332,-0.6146666666666667,2.1743333333333332,-1.534,2.1806666666666663,-1.5429999999999997,0.10266666666666666,-0.152,0.30966666666666665,-0.1923333333333333,0.4623333333333333,-0.09,0.15233333333333332,0.10266666666666666,0.19366666666666665,0.30833333333333335,0.09166666666666667,0.46099999999999997,-0.029666666666666664,0.044333333333333336,-0.744,1.0943333333333332,-2.4866666666666664,1.7913333333333332
C 22.083333333333332,9.679833333333333,22.041333333333334,9.6875,22,9.6875
z "/>
	<path fill="#5DADEC" d="M 28,10.020833333333332
h 1.3333333333333333
v 6.333333333333333
l -1.3333333333333333,-0.015333333333333332
V 10.020833333333332
z 
M 22.666666666666668,16.354166666666664
l 1.3333333333333333,-0.013333333333333332
V 10.020833333333332
H 22.666666666666668
v 6.333333333333333
z "/>
	<path fill="#664500" d="M 24.999666666666666,10.6875
c -0.049999999999999996,0,-0.10099999999999999,-0.011333333333333334,-0.14866666666666667,-0.034999999999999996,-1.1706666666666665,-0.5853333333333333,-2.3566666666666665,-0.005999999999999999,-2.368333333333333,0,-0.16499999999999998,0.08299999999999999,-0.365,0.015333333333333332,-0.44733333333333336,-0.149,-0.08233333333333333,-0.16466666666666666,-0.015666666666666666,-0.365,0.149,-0.44733333333333336,0.06066666666666666,-0.03,1.4993333333333334,-0.7323333333333333,2.965,0,0.16466666666666666,0.08233333333333333,0.2313333333333333,0.2826666666666666,0.149,0.44733333333333336,-0.05866666666666666,0.11666666666666665,-0.17633333333333334,0.184,-0.29866666666666664,0.184
z 
m 4.666666666666666,0
c -0.049999999999999996,0,-0.10099999999999999,-0.011333333333333334,-0.14866666666666667,-0.034999999999999996,-1.1709999999999998,-0.5853333333333333,-2.3566666666666665,-0.005999999999999999,-2.368333333333333,0,-0.16466666666666666,0.08266666666666667,-0.3646666666666667,0.015666666666666666,-0.44733333333333336,-0.149,-0.08233333333333333,-0.16466666666666666,-0.015666666666666666,-0.365,0.149,-0.44733333333333336,0.06066666666666666,-0.03,1.5003333333333333,-0.732,2.965,0,0.16466666666666666,0.08233333333333333,0.2313333333333333,0.2826666666666666,0.149,0.44733333333333336,-0.05866666666666666,0.11666666666666665,-0.17633333333333334,0.184,-0.29866666666666664,0.184
z "/>
	<ellipse fill="#5DADEC"  cx="26" cy="16.020833333333332" rx="6" ry="0.6666666666666666" />
	<ellipse fill="#E75A70" cx="26" cy="13.6875" rx="1" ry="0.6666666666666666" />
</svg>
