<svg xmlns="http://www.w3.org/2000/svg" viewBox="0 0 72 72">
	<path fill="#FFCC4D" d="M 72,36
c 0,19.882,-16.118,36,-36,36
S 0,55.882,0,36,16.118,0,36,0
s 36,16.118,36,36"/>
	<path fill="#664500" d="M 44,54
c 0,5.526,-3.582,6,-8,6,-4.42,0,-8,-0.474,-8,-6,0,-5.522,3.58,-12,8,-12,4.418,0,8,6.478,8,12
z 
m 16,-24
c -0.248,0,-0.5,-0.046,-0.742,-0.144,-10.458,-4.182,-14.744,-10.482,-14.922,-10.748,-0.614,-0.92,-0.366,-2.162,0.554,-2.774,0.918,-0.612,2.154,-0.368,2.77,0.548,0.038,0.054,3.86,5.57,13.082,9.258,1.026,0.412,1.526,1.574,1.116,2.6,-0.314,0.784,-1.066,1.26,-1.858,1.26
z 
M 12,30
c -0.794,0,-1.544,-0.476,-1.858,-1.258,-0.41,-1.026,0.088,-2.19,1.114,-2.6,9.224,-3.688,13.046,-9.204,13.084,-9.258,0.616,-0.912,1.858,-1.154,2.774,-0.54,0.914,0.616,1.162,1.85,0.55,2.766,-0.178,0.266,-4.464,6.566,-14.92,10.748
C 12.5,29.954,12.248,30,12,30
z "/>
	<path fill="#5DADEC" d="M 48,32
h 8
v 38
l -8,-0.092
V 32
z 
M 16,70
l 8,-0.08
V 32
H 16
v 38
z "/>
	<path fill="#664500" d="M 29.998,36
c -0.3,0,-0.606,-0.068,-0.892,-0.21,-7.024,-3.512,-14.14,-0.036,-14.21,0,-0.99,0.498,-2.19,0.092,-2.684,-0.894,-0.494,-0.988,-0.094,-2.19,0.894,-2.684,0.364,-0.18,8.996,-4.394,17.79,0,0.988,0.494,1.388,1.696,0.894,2.684,-0.352,0.7,-1.058,1.104,-1.792,1.104
z 
m 28,0
c -0.3,0,-0.606,-0.068,-0.892,-0.21,-7.026,-3.512,-14.14,-0.036,-14.21,0,-0.988,0.496,-2.188,0.094,-2.684,-0.894,-0.494,-0.988,-0.094,-2.19,0.894,-2.684,0.364,-0.18,9.002,-4.392,17.79,0,0.988,0.494,1.388,1.696,0.894,2.684,-0.352,0.7,-1.058,1.104,-1.792,1.104
z "/>
	<ellipse fill="#5DADEC"  cx="36" cy="68" rx="36" ry="4" />
	<ellipse fill="#E75A70" cx="36" cy="54" rx="6" ry="4" />
</svg>
