<svg xmlns="http://www.w3.org/2000/svg" viewBox="0 0 36 36">
<path fill="#FFCC4D" d="M 36,18
c 0,9.941,-8.059,18,-18,18
S 0,27.941,0,18,8.059,0,18,0
s 18,8.059,18,18"/>
	<path fill="#664500" d="M 22,27
c 0,2.763,-1.791,3,-4,3,-2.21,0,-4,-0.237,-4,-3,0,-2.761,1.79,-6,4,-6,2.209,0,4,3.239,4,6
z 
m 8,-12
c -0.124,0,-0.25,-0.023,-0.371,-0.072,-5.229,-2.091,-7.372,-5.241,-7.461,-5.374,-0.307,-0.46,-0.183,-1.081,0.277,-1.387,0.459,-0.306,1.077,-0.184,1.385,0.274,0.019,0.027,1.93,2.785,6.541,4.629,0.513,0.206,0.763,0.787,0.558,1.3,-0.157,0.392,-0.533,0.63,-0.929,0.63
z 
M 6,15
c -0.397,0,-0.772,-0.238,-0.929,-0.629,-0.205,-0.513,0.044,-1.095,0.557,-1.3,4.612,-1.844,6.523,-4.602,6.542,-4.629,0.308,-0.456,0.929,-0.577,1.387,-0.27,0.457,0.308,0.581,0.925,0.275,1.383,-0.089,0.133,-2.232,3.283,-7.46,5.374
C 6.25,14.977,6.124,15,6,15
z "/>
	<path fill="#5DADEC" d="M 24,16
h 4
v 19
l -4,-0.046
V 16
z 
M 8,35
l 4,-0.04
V 16
H 8
v 19
z "/>
	<path fill="#664500" d="M 14.999,18
c -0.15,0,-0.303,-0.034,-0.446,-0.105,-3.512,-1.756,-7.07,-0.018,-7.105,0,-0.495,0.249,-1.095,0.046,-1.342,-0.447,-0.247,-0.494,-0.047,-1.095,0.447,-1.342,0.182,-0.09,4.498,-2.197,8.895,0,0.494,0.247,0.694,0.848,0.447,1.342,-0.176,0.35,-0.529,0.552,-0.896,0.552
z 
m 14,0
c -0.15,0,-0.303,-0.034,-0.446,-0.105,-3.513,-1.756,-7.07,-0.018,-7.105,0,-0.494,0.248,-1.094,0.047,-1.342,-0.447,-0.247,-0.494,-0.047,-1.095,0.447,-1.342,0.182,-0.09,4.501,-2.196,8.895,0,0.494,0.247,0.694,0.848,0.447,1.342,-0.176,0.35,-0.529,0.552,-0.896,0.552
z "/>
	<ellipse fill="#5DADEC"  cx="18" cy="34" rx="18" ry="2" />
	<ellipse fill="#E75A70" cx="18" cy="27" rx="3" ry="2" />
	<path fill="#664500" d="M 12,14.5
c 0,1.3815,-0.8955,1.5,-2,1.5,-1.105,0,-2,-0.1185,-2,-1.5,0,-1.3805,0.895,-3,2,-3,1.1045,0,2,1.6195,2,3
z 
m 4,-6
c -0.062,0,-0.125,-0.0115,-0.1855,-0.036,-2.6145,-1.0455,-3.686,-2.6205,-3.7305,-2.687,-0.1535,-0.23,-0.0915,-0.5405,0.1385,-0.6935,0.2295,-0.153,0.5385,-0.092,0.6925,0.137,0.0095,0.0135,0.965,1.3925,3.2705,2.3145,0.2565,0.103,0.3815,0.3935,0.279,0.65,-0.0785,0.196,-0.2665,0.315,-0.4645,0.315
z 
M 4,8.5
c -0.1985,0,-0.386,-0.119,-0.4645,-0.3145,-0.1025,-0.2565,0.022,-0.5475,0.2785,-0.65,2.306,-0.922,3.2615,-2.301,3.271,-2.3145,0.154,-0.228,0.4645,-0.2885,0.6935,-0.135,0.2285,0.154,0.2905,0.4625,0.1375,0.6915,-0.0445,0.0665,-1.116,1.6415,-3.73,2.687
C 4.125,8.4885,4.061999999999999,8.5,4,8.5
z "/>
	<path fill="#5DADEC" d="M 13,9
h 2
v 9.5
l -2,-0.023
V 9
z 
M 5,18.5
l 2,-0.02
V 9
H 5
v 9.5
z "/>
	<path fill="#664500" d="M 8.499500000000001,10
c -0.075,0,-0.1515,-0.017,-0.223,-0.0525,-1.756,-0.878,-3.535,-0.009,-3.5525,0,-0.2475,0.1245,-0.5475,0.023,-0.671,-0.2235,-0.1235,-0.247,-0.0235,-0.5475,0.2235,-0.671,0.091,-0.045,2.249,-1.0985,4.4475,0,0.247,0.1235,0.347,0.424,0.2235,0.671,-0.088,0.175,-0.2645,0.276,-0.448,0.276
z 
m 7,0
c -0.075,0,-0.1515,-0.017,-0.223,-0.0525,-1.7565,-0.878,-3.535,-0.009,-3.5525,0,-0.247,0.124,-0.547,0.0235,-0.671,-0.2235,-0.1235,-0.247,-0.0235,-0.5475,0.2235,-0.671,0.091,-0.045,2.2505,-1.098,4.4475,0,0.247,0.1235,0.347,0.424,0.2235,0.671,-0.088,0.175,-0.2645,0.276,-0.448,0.276
z "/>
	<ellipse fill="#5DADEC"  cx="10" cy="18" rx="9" ry="1" />
	<ellipse fill="#E75A70" cx="10" cy="14.5" rx="1.5" ry="1" />
	<path fill="#664500" d="M 28,14.5
c 0,1.3815,-0.8955,1.5,-2,1.5,-1.105,0,-2,-0.1185,-2,-1.5,0,-1.3805,0.895,-3,2,-3,1.1045,0,2,1.6195,2,3
z 
m 4,-6
c -0.062,0,-0.125,-0.0115,-0.1855,-0.036,-2.6145,-1.0455,-3.686,-2.6205,-3.7305,-2.687,-0.1535,-0.23,-0.0915,-0.5405,0.1385,-0.6935,0.2295,-0.153,0.5385,-0.092,0.6925,0.137,0.0095,0.0135,0.965,1.3925,3.2705,2.3145,0.2565,0.103,0.3815,0.3935,0.279,0.65,-0.0785,0.196,-0.2665,0.315,-0.4645,0.315
z 
M 20,8.5
c -0.1985,0,-0.386,-0.119,-0.4645,-0.3145,-0.1025,-0.2565,0.022,-0.5475,0.2785,-0.65,2.306,-0.922,3.2615,-2.301,3.271,-2.3145,0.154,-0.228,0.4645,-0.2885,0.6935,-0.135,0.2285,0.154,0.2905,0.4625,0.1375,0.6915,-0.0445,0.0665,-1.116,1.6415,-3.73,2.687
C 20.125,8.4885,20.062,8.5,20,8.5
z "/>
	<path fill="#5DADEC" d="M 29,9
h 2
v 9.5
l -2,-0.023
V 9
z 
M 21,18.5
l 2,-0.02
V 9
H 21
v 9.5
z "/>
	<path fill="#664500" d="M 24.4995,10
c -0.075,0,-0.1515,-0.017,-0.223,-0.0525,-1.756,-0.878,-3.535,-0.009,-3.5525,0,-0.2475,0.1245,-0.5475,0.023,-0.671,-0.2235,-0.1235,-0.247,-0.0235,-0.5475,0.2235,-0.671,0.091,-0.045,2.249,-1.0985,4.4475,0,0.247,0.1235,0.347,0.424,0.2235,0.671,-0.088,0.175,-0.2645,0.276,-0.448,0.276
z 
m 7,0
c -0.075,0,-0.1515,-0.017,-0.223,-0.0525,-1.7565,-0.878,-3.535,-0.009,-3.5525,0,-0.247,0.124,-0.547,0.0235,-0.671,-0.2235,-0.1235,-0.247,-0.0235,-0.5475,0.2235,-0.671,0.091,-0.045,2.2505,-1.098,4.4475,0,0.247,0.1235,0.347,0.424,0.2235,0.671,-0.088,0.175,-0.2645,0.276,-0.448,0.276
z "/>
	<ellipse fill="#5DADEC"  cx="26" cy="18" rx="9" ry="1" />
	<ellipse fill="#E75A70" cx="26" cy="14.5" rx="1.5" ry="1" />
</svg>
