<svg xmlns="http://www.w3.org/2000/svg" viewBox="0 0 36 36">
<path fill="#FFCC4D" d="M 36,18
c 0,9.941,-8.059,18,-18,18
S 0,27.941,0,18,8.059,0,18,0
s 18,8.059,18,18"/>
	<path fill="#664500" d="M 22,27
c 0,2.763,-1.791,3,-4,3,-2.21,0,-4,-0.237,-4,-3,0,-2.761,1.79,-6,4,-6,2.209,0,4,3.239,4,6
z "/>
	<path fill="#5DADEC" d="M 24,16
h 4
v 19
l -4,-0.046
V 16
z 
M 8,35
l 4,-0.04
V 16
H 8
v 19
z "/>
	<ellipse fill="#5DADEC"  cx="18" cy="34" rx="18" ry="2" />
	<ellipse fill="#E75A70" cx="18" cy="27" rx="3" ry="2" />
	<path fill="#664500" d="M 11.333333333333332,13
c 0,0.9209999999999999,-0.597,1,-1.3333333333333333,1,-0.7366666666666666,0,-1.3333333333333333,-0.07899999999999999,-1.3333333333333333,-1,0,-0.9203333333333333,0.5966666666666667,-2,1.3333333333333333,-2,0.7363333333333333,0,1.3333333333333333,1.0796666666666666,1.3333333333333333,2
z "/>
	<path fill="#5DADEC" d="M 12,9.333333333333332
h 1.3333333333333333
v 6.333333333333333
l -1.3333333333333333,-0.015333333333333332
V 9.333333333333332
z 
M 6.666666666666666,15.666666666666666
l 1.3333333333333333,-0.013333333333333332
V 9.333333333333332
H 6.666666666666666
v 6.333333333333333
z "/>
	<ellipse fill="#5DADEC"  cx="10" cy="15.333333333333332" rx="6" ry="0.6666666666666666" />
	<ellipse fill="#E75A70" cx="10" cy="13" rx="1" ry="0.6666666666666666" />
	<path fill="#664500" d="M 6.592592592592592,7.740740740740741
c 0,0.307,-0.19899999999999998,0.3333333333333333,-0.4444444444444444,0.3333333333333333,-0.24555555555555553,0,-0.4444444444444444,-0.02633333333333333,-0.4444444444444444,-0.3333333333333333,0,-0.30677777777777776,0.1988888888888889,-0.6666666666666666,0.4444444444444444,-0.6666666666666666,0.24544444444444444,0,0.4444444444444444,0.35988888888888887,0.4444444444444444,0.6666666666666666
z "/>
	<path fill="#5DADEC" d="M 6.814814814814815,6.518518518518519
h 0.4444444444444444
v 2.111111111111111
l -0.4444444444444444,-0.0051111111111111105
V 6.518518518518519
z 
M 5.037037037037036,8.62962962962963
l 0.4444444444444444,-0.0044444444444444444
V 6.518518518518519
H 5.037037037037036
v 2.111111111111111
z "/>
	<ellipse fill="#5DADEC"  cx="6.148148148148148" cy="8.518518518518519" rx="2" ry="0.2222222222222222" />
	<ellipse fill="#E75A70" cx="6.148148148148148" cy="7.740740740740741" rx="0.3333333333333333" ry="0.2222222222222222" />
	<path fill="#664500" d="M 4.968449931412894,5.834019204389575
c 0,0.10233333333333332,-0.06633333333333333,0.1111111111111111,-0.14814814814814814,0.1111111111111111,-0.08185185185185184,0,-0.14814814814814814,-0.008777777777777777,-0.14814814814814814,-0.1111111111111111,0,-0.10225925925925926,0.0662962962962963,-0.2222222222222222,0.14814814814814814,-0.2222222222222222,0.08181481481481481,0,0.14814814814814814,0.11996296296296295,0.14814814814814814,0.2222222222222222
z "/>
	<path fill="#664500" d="M 4.968449931412894,5.834019204389575
m 0.2962962962962963,-0.4444444444444444
c -0.0045925925925925926,0,-0.009259259259259259,-0.0008518518518518518,-0.013740740740740739,-0.002666666666666666,-0.19366666666666665,-0.07744444444444444,-0.273037037037037,-0.1941111111111111,-0.2763333333333333,-0.199037037037037,-0.01137037037037037,-0.017037037037037038,-0.0067777777777777775,-0.04003703703703703,0.01025925925925926,-0.051370370370370365,0.017,-0.011333333333333332,0.03988888888888888,-0.006814814814814814,0.05129629629629629,0.01014814814814815,0.0007037037037037037,0.001,0.07148148148148148,0.10314814814814814,0.24225925925925926,0.17144444444444443,0.019,0.007629629629629629,0.02825925925925926,0.02914814814814815,0.020666666666666667,0.04814814814814815,-0.005814814814814814,0.014518518518518517,-0.01974074074074074,0.02333333333333333,-0.03440740740740741,0.02333333333333333
z 
M 4.3758573388203015,5.3895747599451305
c -0.014703703703703703,0,-0.028592592592592593,-0.008814814814814814,-0.03440740740740741,-0.023296296296296294,-0.007592592592592592,-0.019,0.0016296296296296295,-0.04055555555555555,0.02062962962962963,-0.04814814814814815,0.1708148148148148,-0.0682962962962963,0.24159259259259258,-0.17044444444444445,0.2422962962962963,-0.17144444444444443,0.011407407407407406,-0.016888888888888887,0.03440740740740741,-0.021370370370370366,0.051370370370370365,-0.01,0.016925925925925924,0.011407407407407406,0.021518518518518517,0.03425925925925926,0.010185185185185186,0.05122222222222222,-0.003296296296296296,0.004925925925925926,-0.08266666666666667,0.12159259259259259,-0.27629629629629626,0.199037037037037
C 4.385116598079561,5.388722908093278,4.380449931412894,5.3895747599451305,4.3758573388203015,5.3895747599451305
z "/>
	<path fill="#5DADEC" d="M 5.0425240054869676,5.426611796982168
h 0.14814814814814814
v 0.7037037037037037
l -0.14814814814814814,-0.0017037037037037036
V 5.426611796982168
z 
M 4.449931412894376,6.130315500685871
l 0.14814814814814814,-0.0014814814814814814
V 5.426611796982168
H 4.449931412894376
v 0.7037037037037037
z "/>
	<path fill="#664500" d="M 4.709153635116598,5.500685871056242
c -0.005555555555555555,0,-0.011222222222222222,-0.0012592592592592592,-0.01651851851851852,-0.0038888888888888883,-0.13007407407407406,-0.06503703703703703,-0.26185185185185184,-0.0006666666666666665,-0.26314814814814813,0,-0.018333333333333333,0.009222222222222222,-0.04055555555555555,0.0017037037037037036,-0.0497037037037037,-0.016555555555555556,-0.009148148148148148,-0.018296296296296297,-0.0017407407407407406,-0.04055555555555555,0.016555555555555556,-0.0497037037037037,0.00674074074074074,-0.003333333333333333,0.1665925925925926,-0.08137037037037037,0.32944444444444443,0,0.018296296296296297,0.009148148148148148,0.0257037037037037,0.031407407407407405,0.016555555555555556,0.0497037037037037,-0.006518518518518518,0.01296296296296296,-0.019592592592592592,0.020444444444444446,-0.033185185185185186,0.020444444444444446
z 
m 0.5185185185185185,0
c -0.005555555555555555,0,-0.011222222222222222,-0.0012592592592592592,-0.01651851851851852,-0.0038888888888888883,-0.1301111111111111,-0.06503703703703703,-0.26185185185185184,-0.0006666666666666665,-0.26314814814814813,0,-0.018296296296296297,0.009185185185185185,-0.040518518518518516,0.0017407407407407406,-0.0497037037037037,-0.016555555555555556,-0.009148148148148148,-0.018296296296296297,-0.0017407407407407406,-0.04055555555555555,0.016555555555555556,-0.0497037037037037,0.00674074074074074,-0.003333333333333333,0.16670370370370372,-0.08133333333333334,0.32944444444444443,0,0.018296296296296297,0.009148148148148148,0.0257037037037037,0.031407407407407405,0.016555555555555556,0.0497037037037037,-0.006518518518518518,0.01296296296296296,-0.019592592592592592,0.020444444444444446,-0.033185185185185186,0.020444444444444446
z "/>
	<ellipse fill="#5DADEC"  cx="4.820301783264746" cy="6.093278463648835" rx="0.6666666666666666" ry="0.07407407407407407" />
	<ellipse fill="#E75A70" cx="4.820301783264746" cy="5.834019204389575" rx="0.1111111111111111" ry="0.07407407407407407" />
	<path fill="#664500" d="M 7.6241426611796985,5.834019204389575
c 0,0.10233333333333332,-0.06633333333333333,0.1111111111111111,-0.14814814814814814,0.1111111111111111,-0.08185185185185184,0,-0.14814814814814814,-0.008777777777777777,-0.14814814814814814,-0.1111111111111111,0,-0.10225925925925926,0.0662962962962963,-0.2222222222222222,0.14814814814814814,-0.2222222222222222,0.08181481481481481,0,0.14814814814814814,0.11996296296296295,0.14814814814814814,0.2222222222222222
z "/>
	<path fill="#664500" d="M 7.6241426611796985,5.834019204389575
m 0.2962962962962963,-0.4444444444444444
c -0.0045925925925925926,0,-0.009259259259259259,-0.0008518518518518518,-0.013740740740740739,-0.002666666666666666,-0.19366666666666665,-0.07744444444444444,-0.273037037037037,-0.1941111111111111,-0.2763333333333333,-0.199037037037037,-0.01137037037037037,-0.017037037037037038,-0.0067777777777777775,-0.04003703703703703,0.01025925925925926,-0.051370370370370365,0.017,-0.011333333333333332,0.03988888888888888,-0.006814814814814814,0.05129629629629629,0.01014814814814815,0.0007037037037037037,0.001,0.07148148148148148,0.10314814814814814,0.24225925925925926,0.17144444444444443,0.019,0.007629629629629629,0.02825925925925926,0.02914814814814815,0.020666666666666667,0.04814814814814815,-0.005814814814814814,0.014518518518518517,-0.01974074074074074,0.02333333333333333,-0.03440740740740741,0.02333333333333333
z 
M 7.031550068587106,5.3895747599451305
c -0.014703703703703703,0,-0.028592592592592593,-0.008814814814814814,-0.03440740740740741,-0.023296296296296294,-0.007592592592592592,-0.019,0.0016296296296296295,-0.04055555555555555,0.02062962962962963,-0.04814814814814815,0.1708148148148148,-0.0682962962962963,0.24159259259259258,-0.17044444444444445,0.2422962962962963,-0.17144444444444443,0.011407407407407406,-0.016888888888888887,0.03440740740740741,-0.021370370370370366,0.051370370370370365,-0.01,0.016925925925925924,0.011407407407407406,0.021518518518518517,0.03425925925925926,0.010185185185185186,0.05122222222222222,-0.003296296296296296,0.004925925925925926,-0.08266666666666667,0.12159259259259259,-0.27629629629629626,0.199037037037037
C 7.0408093278463655,5.388722908093278,7.036142661179698,5.3895747599451305,7.031550068587106,5.3895747599451305
z "/>
	<path fill="#5DADEC" d="M 7.698216735253773,5.426611796982168
h 0.14814814814814814
v 0.7037037037037037
l -0.14814814814814814,-0.0017037037037037036
V 5.426611796982168
z 
M 7.1056241426611795,6.130315500685871
l 0.14814814814814814,-0.0014814814814814814
V 5.426611796982168
H 7.1056241426611795
v 0.7037037037037037
z "/>
	<path fill="#664500" d="M 7.364846364883402,5.500685871056242
c -0.005555555555555555,0,-0.011222222222222222,-0.0012592592592592592,-0.01651851851851852,-0.0038888888888888883,-0.13007407407407406,-0.06503703703703703,-0.26185185185185184,-0.0006666666666666665,-0.26314814814814813,0,-0.018333333333333333,0.009222222222222222,-0.04055555555555555,0.0017037037037037036,-0.0497037037037037,-0.016555555555555556,-0.009148148148148148,-0.018296296296296297,-0.0017407407407407406,-0.04055555555555555,0.016555555555555556,-0.0497037037037037,0.00674074074074074,-0.003333333333333333,0.1665925925925926,-0.08137037037037037,0.32944444444444443,0,0.018296296296296297,0.009148148148148148,0.0257037037037037,0.031407407407407405,0.016555555555555556,0.0497037037037037,-0.006518518518518518,0.01296296296296296,-0.019592592592592592,0.020444444444444446,-0.033185185185185186,0.020444444444444446
z 
m 0.5185185185185185,0
c -0.005555555555555555,0,-0.011222222222222222,-0.0012592592592592592,-0.01651851851851852,-0.0038888888888888883,-0.1301111111111111,-0.06503703703703703,-0.26185185185185184,-0.0006666666666666665,-0.26314814814814813,0,-0.018296296296296297,0.009185185185185185,-0.040518518518518516,0.0017407407407407406,-0.0497037037037037,-0.016555555555555556,-0.009148148148148148,-0.018296296296296297,-0.0017407407407407406,-0.04055555555555555,0.016555555555555556,-0.0497037037037037,0.00674074074074074,-0.003333333333333333,0.16670370370370372,-0.08133333333333334,0.32944444444444443,0,0.018296296296296297,0.009148148148148148,0.0257037037037037,0.031407407407407405,0.016555555555555556,0.0497037037037037,-0.006518518518518518,0.01296296296296296,-0.019592592592592592,0.020444444444444446,-0.033185185185185186,0.020444444444444446
z "/>
	<ellipse fill="#5DADEC"  cx="7.475994513031551" cy="6.093278463648835" rx="0.6666666666666666" ry="0.07407407407407407" />
	<ellipse fill="#E75A70" cx="7.475994513031551" cy="5.834019204389575" rx="0.1111111111111111" ry="0.07407407407407407" />
	<path fill="#664500" d="M 14.296296296296296,7.740740740740741
c 0,0.307,-0.19899999999999998,0.3333333333333333,-0.4444444444444444,0.3333333333333333,-0.24555555555555553,0,-0.4444444444444444,-0.02633333333333333,-0.4444444444444444,-0.3333333333333333,0,-0.30677777777777776,0.1988888888888889,-0.6666666666666666,0.4444444444444444,-0.6666666666666666,0.24544444444444444,0,0.4444444444444444,0.35988888888888887,0.4444444444444444,0.6666666666666666
z "/>
	<path fill="#5DADEC" d="M 14.518518518518517,6.518518518518519
h 0.4444444444444444
v 2.111111111111111
l -0.4444444444444444,-0.0051111111111111105
V 6.518518518518519
z 
M 12.74074074074074,8.62962962962963
l 0.4444444444444444,-0.0044444444444444444
V 6.518518518518519
H 12.74074074074074
v 2.111111111111111
z "/>
	<ellipse fill="#5DADEC"  cx="13.851851851851851" cy="8.518518518518519" rx="2" ry="0.2222222222222222" />
	<ellipse fill="#E75A70" cx="13.851851851851851" cy="7.740740740740741" rx="0.3333333333333333" ry="0.2222222222222222" />
	<path fill="#664500" d="M 12.672153635116597,5.834019204389575
c 0,0.10233333333333332,-0.06633333333333333,0.1111111111111111,-0.14814814814814814,0.1111111111111111,-0.08185185185185184,0,-0.14814814814814814,-0.008777777777777777,-0.14814814814814814,-0.1111111111111111,0,-0.10225925925925926,0.0662962962962963,-0.2222222222222222,0.14814814814814814,-0.2222222222222222,0.08181481481481481,0,0.14814814814814814,0.11996296296296295,0.14814814814814814,0.2222222222222222
z "/>
	<path fill="#664500" d="M 12.672153635116597,5.834019204389575
m 0.2962962962962963,-0.4444444444444444
c -0.0045925925925925926,0,-0.009259259259259259,-0.0008518518518518518,-0.013740740740740739,-0.002666666666666666,-0.19366666666666665,-0.07744444444444444,-0.273037037037037,-0.1941111111111111,-0.2763333333333333,-0.199037037037037,-0.01137037037037037,-0.017037037037037038,-0.0067777777777777775,-0.04003703703703703,0.01025925925925926,-0.051370370370370365,0.017,-0.011333333333333332,0.03988888888888888,-0.006814814814814814,0.05129629629629629,0.01014814814814815,0.0007037037037037037,0.001,0.07148148148148148,0.10314814814814814,0.24225925925925926,0.17144444444444443,0.019,0.007629629629629629,0.02825925925925926,0.02914814814814815,0.020666666666666667,0.04814814814814815,-0.005814814814814814,0.014518518518518517,-0.01974074074074074,0.02333333333333333,-0.03440740740740741,0.02333333333333333
z 
M 12.079561042524004,5.3895747599451305
c -0.014703703703703703,0,-0.028592592592592593,-0.008814814814814814,-0.03440740740740741,-0.023296296296296294,-0.007592592592592592,-0.019,0.0016296296296296295,-0.04055555555555555,0.02062962962962963,-0.04814814814814815,0.1708148148148148,-0.0682962962962963,0.24159259259259258,-0.17044444444444445,0.2422962962962963,-0.17144444444444443,0.011407407407407406,-0.016888888888888887,0.03440740740740741,-0.021370370370370366,0.051370370370370365,-0.01,0.016925925925925924,0.011407407407407406,0.021518518518518517,0.03425925925925926,0.010185185185185186,0.05122222222222222,-0.003296296296296296,0.004925925925925926,-0.08266666666666667,0.12159259259259259,-0.27629629629629626,0.199037037037037
C 12.088820301783263,5.388722908093278,12.084153635116596,5.3895747599451305,12.079561042524004,5.3895747599451305
z "/>
	<path fill="#5DADEC" d="M 12.746227709190672,5.426611796982168
h 0.14814814814814814
v 0.7037037037037037
l -0.14814814814814814,-0.0017037037037037036
V 5.426611796982168
z 
M 12.153635116598078,6.130315500685871
l 0.14814814814814814,-0.0014814814814814814
V 5.426611796982168
H 12.153635116598078
v 0.7037037037037037
z "/>
	<path fill="#664500" d="M 12.4128573388203,5.500685871056242
c -0.005555555555555555,0,-0.011222222222222222,-0.0012592592592592592,-0.01651851851851852,-0.0038888888888888883,-0.13007407407407406,-0.06503703703703703,-0.26185185185185184,-0.0006666666666666665,-0.26314814814814813,0,-0.018333333333333333,0.009222222222222222,-0.04055555555555555,0.0017037037037037036,-0.0497037037037037,-0.016555555555555556,-0.009148148148148148,-0.018296296296296297,-0.0017407407407407406,-0.04055555555555555,0.016555555555555556,-0.0497037037037037,0.00674074074074074,-0.003333333333333333,0.1665925925925926,-0.08137037037037037,0.32944444444444443,0,0.018296296296296297,0.009148148148148148,0.0257037037037037,0.031407407407407405,0.016555555555555556,0.0497037037037037,-0.006518518518518518,0.01296296296296296,-0.019592592592592592,0.020444444444444446,-0.033185185185185186,0.020444444444444446
z 
m 0.5185185185185185,0
c -0.005555555555555555,0,-0.011222222222222222,-0.0012592592592592592,-0.01651851851851852,-0.0038888888888888883,-0.1301111111111111,-0.06503703703703703,-0.26185185185185184,-0.0006666666666666665,-0.26314814814814813,0,-0.018296296296296297,0.009185185185185185,-0.040518518518518516,0.0017407407407407406,-0.0497037037037037,-0.016555555555555556,-0.009148148148148148,-0.018296296296296297,-0.0017407407407407406,-0.04055555555555555,0.016555555555555556,-0.0497037037037037,0.00674074074074074,-0.003333333333333333,0.16670370370370372,-0.08133333333333334,0.32944444444444443,0,0.018296296296296297,0.009148148148148148,0.0257037037037037,0.031407407407407405,0.016555555555555556,0.0497037037037037,-0.006518518518518518,0.01296296296296296,-0.019592592592592592,0.020444444444444446,-0.033185185185185186,0.020444444444444446
z "/>
	<ellipse fill="#5DADEC"  cx="12.524005486968449" cy="6.093278463648835" rx="0.6666666666666666" ry="0.07407407407407407" />
	<ellipse fill="#E75A70" cx="12.524005486968449" cy="5.834019204389575" rx="0.1111111111111111" ry="0.07407407407407407" />
	<path fill="#664500" d="M 15.327846364883401,5.834019204389575
c 0,0.10233333333333332,-0.06633333333333333,0.1111111111111111,-0.14814814814814814,0.1111111111111111,-0.08185185185185184,0,-0.14814814814814814,-0.008777777777777777,-0.14814814814814814,-0.1111111111111111,0,-0.10225925925925926,0.0662962962962963,-0.2222222222222222,0.14814814814814814,-0.2222222222222222,0.08181481481481481,0,0.14814814814814814,0.11996296296296295,0.14814814814814814,0.2222222222222222
z "/>
	<path fill="#664500" d="M 15.327846364883401,5.834019204389575
m 0.2962962962962963,-0.4444444444444444
c -0.0045925925925925926,0,-0.009259259259259259,-0.0008518518518518518,-0.013740740740740739,-0.002666666666666666,-0.19366666666666665,-0.07744444444444444,-0.273037037037037,-0.1941111111111111,-0.2763333333333333,-0.199037037037037,-0.01137037037037037,-0.017037037037037038,-0.0067777777777777775,-0.04003703703703703,0.01025925925925926,-0.051370370370370365,0.017,-0.011333333333333332,0.03988888888888888,-0.006814814814814814,0.05129629629629629,0.01014814814814815,0.0007037037037037037,0.001,0.07148148148148148,0.10314814814814814,0.24225925925925926,0.17144444444444443,0.019,0.007629629629629629,0.02825925925925926,0.02914814814814815,0.020666666666666667,0.04814814814814815,-0.005814814814814814,0.014518518518518517,-0.01974074074074074,0.02333333333333333,-0.03440740740740741,0.02333333333333333
z 
M 14.735253772290807,5.3895747599451305
c -0.014703703703703703,0,-0.028592592592592593,-0.008814814814814814,-0.03440740740740741,-0.023296296296296294,-0.007592592592592592,-0.019,0.0016296296296296295,-0.04055555555555555,0.02062962962962963,-0.04814814814814815,0.1708148148148148,-0.0682962962962963,0.24159259259259258,-0.17044444444444445,0.2422962962962963,-0.17144444444444443,0.011407407407407406,-0.016888888888888887,0.03440740740740741,-0.021370370370370366,0.051370370370370365,-0.01,0.016925925925925924,0.011407407407407406,0.021518518518518517,0.03425925925925926,0.010185185185185186,0.05122222222222222,-0.003296296296296296,0.004925925925925926,-0.08266666666666667,0.12159259259259259,-0.27629629629629626,0.199037037037037
C 14.744513031550067,5.388722908093278,14.739846364883402,5.3895747599451305,14.735253772290807,5.3895747599451305
z "/>
	<path fill="#5DADEC" d="M 15.401920438957475,5.426611796982168
h 0.14814814814814814
v 0.7037037037037037
l -0.14814814814814814,-0.0017037037037037036
V 5.426611796982168
z 
M 14.809327846364882,6.130315500685871
l 0.14814814814814814,-0.0014814814814814814
V 5.426611796982168
H 14.809327846364882
v 0.7037037037037037
z "/>
	<path fill="#664500" d="M 15.068550068587104,5.500685871056242
c -0.005555555555555555,0,-0.011222222222222222,-0.0012592592592592592,-0.01651851851851852,-0.0038888888888888883,-0.13007407407407406,-0.06503703703703703,-0.26185185185185184,-0.0006666666666666665,-0.26314814814814813,0,-0.018333333333333333,0.009222222222222222,-0.04055555555555555,0.0017037037037037036,-0.0497037037037037,-0.016555555555555556,-0.009148148148148148,-0.018296296296296297,-0.0017407407407407406,-0.04055555555555555,0.016555555555555556,-0.0497037037037037,0.00674074074074074,-0.003333333333333333,0.1665925925925926,-0.08137037037037037,0.32944444444444443,0,0.018296296296296297,0.009148148148148148,0.0257037037037037,0.031407407407407405,0.016555555555555556,0.0497037037037037,-0.006518518518518518,0.01296296296296296,-0.019592592592592592,0.020444444444444446,-0.033185185185185186,0.020444444444444446
z 
m 0.5185185185185185,0
c -0.005555555555555555,0,-0.011222222222222222,-0.0012592592592592592,-0.01651851851851852,-0.0038888888888888883,-0.1301111111111111,-0.06503703703703703,-0.26185185185185184,-0.0006666666666666665,-0.26314814814814813,0,-0.018296296296296297,0.009185185185185185,-0.040518518518518516,0.0017407407407407406,-0.0497037037037037,-0.016555555555555556,-0.009148148148148148,-0.018296296296296297,-0.0017407407407407406,-0.04055555555555555,0.016555555555555556,-0.0497037037037037,0.00674074074074074,-0.003333333333333333,0.16670370370370372,-0.08133333333333334,0.32944444444444443,0,0.018296296296296297,0.009148148148148148,0.0257037037037037,0.031407407407407405,0.016555555555555556,0.0497037037037037,-0.006518518518518518,0.01296296296296296,-0.019592592592592592,0.020444444444444446,-0.033185185185185186,0.020444444444444446
z "/>
	<ellipse fill="#5DADEC"  cx="15.179698216735252" cy="6.093278463648835" rx="0.6666666666666666" ry="0.07407407407407407" />
	<ellipse fill="#E75A70" cx="15.179698216735252" cy="5.834019204389575" rx="0.1111111111111111" ry="0.07407407407407407" />
	<path fill="#664500" d="M 27.333333333333332,13
c 0,0.9209999999999999,-0.597,1,-1.3333333333333333,1,-0.7366666666666666,0,-1.3333333333333333,-0.07899999999999999,-1.3333333333333333,-1,0,-0.9203333333333333,0.5966666666666667,-2,1.3333333333333333,-2,0.7363333333333333,0,1.3333333333333333,1.0796666666666666,1.3333333333333333,2
z "/>
	<path fill="#5DADEC" d="M 28,9.333333333333332
h 1.3333333333333333
v 6.333333333333333
l -1.3333333333333333,-0.015333333333333332
V 9.333333333333332
z 
M 22.666666666666668,15.666666666666666
l 1.3333333333333333,-0.013333333333333332
V 9.333333333333332
H 22.666666666666668
v 6.333333333333333
z "/>
	<ellipse fill="#5DADEC"  cx="26" cy="15.333333333333332" rx="6" ry="0.6666666666666666" />
	<ellipse fill="#E75A70" cx="26" cy="13" rx="1" ry="0.6666666666666666" />
	<path fill="#664500" d="M 22.59259259259259,7.740740740740741
c 0,0.307,-0.19899999999999998,0.3333333333333333,-0.4444444444444444,0.3333333333333333,-0.24555555555555553,0,-0.4444444444444444,-0.02633333333333333,-0.4444444444444444,-0.3333333333333333,0,-0.30677777777777776,0.1988888888888889,-0.6666666666666666,0.4444444444444444,-0.6666666666666666,0.24544444444444444,0,0.4444444444444444,0.35988888888888887,0.4444444444444444,0.6666666666666666
z "/>
	<path fill="#5DADEC" d="M 22.814814814814817,6.518518518518519
h 0.4444444444444444
v 2.111111111111111
l -0.4444444444444444,-0.0051111111111111105
V 6.518518518518519
z 
M 21.037037037037038,8.62962962962963
l 0.4444444444444444,-0.0044444444444444444
V 6.518518518518519
H 21.037037037037038
v 2.111111111111111
z "/>
	<ellipse fill="#5DADEC"  cx="22.14814814814815" cy="8.518518518518519" rx="2" ry="0.2222222222222222" />
	<ellipse fill="#E75A70" cx="22.14814814814815" cy="7.740740740740741" rx="0.3333333333333333" ry="0.2222222222222222" />
	<path fill="#664500" d="M 20.968449931412895,5.834019204389575
c 0,0.10233333333333332,-0.06633333333333333,0.1111111111111111,-0.14814814814814814,0.1111111111111111,-0.08185185185185184,0,-0.14814814814814814,-0.008777777777777777,-0.14814814814814814,-0.1111111111111111,0,-0.10225925925925926,0.0662962962962963,-0.2222222222222222,0.14814814814814814,-0.2222222222222222,0.08181481481481481,0,0.14814814814814814,0.11996296296296295,0.14814814814814814,0.2222222222222222
z "/>
	<path fill="#664500" d="M 20.968449931412895,5.834019204389575
m 0.2962962962962963,-0.4444444444444444
c -0.0045925925925925926,0,-0.009259259259259259,-0.0008518518518518518,-0.013740740740740739,-0.002666666666666666,-0.19366666666666665,-0.07744444444444444,-0.273037037037037,-0.1941111111111111,-0.2763333333333333,-0.199037037037037,-0.01137037037037037,-0.017037037037037038,-0.0067777777777777775,-0.04003703703703703,0.01025925925925926,-0.051370370370370365,0.017,-0.011333333333333332,0.03988888888888888,-0.006814814814814814,0.05129629629629629,0.01014814814814815,0.0007037037037037037,0.001,0.07148148148148148,0.10314814814814814,0.24225925925925926,0.17144444444444443,0.019,0.007629629629629629,0.02825925925925926,0.02914814814814815,0.020666666666666667,0.04814814814814815,-0.005814814814814814,0.014518518518518517,-0.01974074074074074,0.02333333333333333,-0.03440740740740741,0.02333333333333333
z 
M 20.375857338820303,5.3895747599451305
c -0.014703703703703703,0,-0.028592592592592593,-0.008814814814814814,-0.03440740740740741,-0.023296296296296294,-0.007592592592592592,-0.019,0.0016296296296296295,-0.04055555555555555,0.02062962962962963,-0.04814814814814815,0.1708148148148148,-0.0682962962962963,0.24159259259259258,-0.17044444444444445,0.2422962962962963,-0.17144444444444443,0.011407407407407406,-0.016888888888888887,0.03440740740740741,-0.021370370370370366,0.051370370370370365,-0.01,0.016925925925925924,0.011407407407407406,0.021518518518518517,0.03425925925925926,0.010185185185185186,0.05122222222222222,-0.003296296296296296,0.004925925925925926,-0.08266666666666667,0.12159259259259259,-0.27629629629629626,0.199037037037037
C 20.385116598079563,5.388722908093278,20.380449931412898,5.3895747599451305,20.375857338820303,5.3895747599451305
z "/>
	<path fill="#5DADEC" d="M 21.04252400548697,5.426611796982168
h 0.14814814814814814
v 0.7037037037037037
l -0.14814814814814814,-0.0017037037037037036
V 5.426611796982168
z 
M 20.44993141289438,6.130315500685871
l 0.14814814814814814,-0.0014814814814814814
V 5.426611796982168
H 20.44993141289438
v 0.7037037037037037
z "/>
	<path fill="#664500" d="M 20.7091536351166,5.500685871056242
c -0.005555555555555555,0,-0.011222222222222222,-0.0012592592592592592,-0.01651851851851852,-0.0038888888888888883,-0.13007407407407406,-0.06503703703703703,-0.26185185185185184,-0.0006666666666666665,-0.26314814814814813,0,-0.018333333333333333,0.009222222222222222,-0.04055555555555555,0.0017037037037037036,-0.0497037037037037,-0.016555555555555556,-0.009148148148148148,-0.018296296296296297,-0.0017407407407407406,-0.04055555555555555,0.016555555555555556,-0.0497037037037037,0.00674074074074074,-0.003333333333333333,0.1665925925925926,-0.08137037037037037,0.32944444444444443,0,0.018296296296296297,0.009148148148148148,0.0257037037037037,0.031407407407407405,0.016555555555555556,0.0497037037037037,-0.006518518518518518,0.01296296296296296,-0.019592592592592592,0.020444444444444446,-0.033185185185185186,0.020444444444444446
z 
m 0.5185185185185185,0
c -0.005555555555555555,0,-0.011222222222222222,-0.0012592592592592592,-0.01651851851851852,-0.0038888888888888883,-0.1301111111111111,-0.06503703703703703,-0.26185185185185184,-0.0006666666666666665,-0.26314814814814813,0,-0.018296296296296297,0.009185185185185185,-0.040518518518518516,0.0017407407407407406,-0.0497037037037037,-0.016555555555555556,-0.009148148148148148,-0.018296296296296297,-0.0017407407407407406,-0.04055555555555555,0.016555555555555556,-0.0497037037037037,0.00674074074074074,-0.003333333333333333,0.16670370370370372,-0.08133333333333334,0.32944444444444443,0,0.018296296296296297,0.009148148148148148,0.0257037037037037,0.031407407407407405,0.016555555555555556,0.0497037037037037,-0.006518518518518518,0.01296296296296296,-0.019592592592592592,0.020444444444444446,-0.033185185185185186,0.020444444444444446
z "/>
	<ellipse fill="#5DADEC"  cx="20.82030178326475" cy="6.093278463648835" rx="0.6666666666666666" ry="0.07407407407407407" />
	<ellipse fill="#E75A70" cx="20.82030178326475" cy="5.834019204389575" rx="0.1111111111111111" ry="0.07407407407407407" />
	<path fill="#664500" d="M 23.624142661179697,5.834019204389575
c 0,0.10233333333333332,-0.06633333333333333,0.1111111111111111,-0.14814814814814814,0.1111111111111111,-0.08185185185185184,0,-0.14814814814814814,-0.008777777777777777,-0.14814814814814814,-0.1111111111111111,0,-0.10225925925925926,0.0662962962962963,-0.2222222222222222,0.14814814814814814,-0.2222222222222222,0.08181481481481481,0,0.14814814814814814,0.11996296296296295,0.14814814814814814,0.2222222222222222
z "/>
	<path fill="#664500" d="M 23.624142661179697,5.834019204389575
m 0.2962962962962963,-0.4444444444444444
c -0.0045925925925925926,0,-0.009259259259259259,-0.0008518518518518518,-0.013740740740740739,-0.002666666666666666,-0.19366666666666665,-0.07744444444444444,-0.273037037037037,-0.1941111111111111,-0.2763333333333333,-0.199037037037037,-0.01137037037037037,-0.017037037037037038,-0.0067777777777777775,-0.04003703703703703,0.01025925925925926,-0.051370370370370365,0.017,-0.011333333333333332,0.03988888888888888,-0.006814814814814814,0.05129629629629629,0.01014814814814815,0.0007037037037037037,0.001,0.07148148148148148,0.10314814814814814,0.24225925925925926,0.17144444444444443,0.019,0.007629629629629629,0.02825925925925926,0.02914814814814815,0.020666666666666667,0.04814814814814815,-0.005814814814814814,0.014518518518518517,-0.01974074074074074,0.02333333333333333,-0.03440740740740741,0.02333333333333333
z 
M 23.031550068587105,5.3895747599451305
c -0.014703703703703703,0,-0.028592592592592593,-0.008814814814814814,-0.03440740740740741,-0.023296296296296294,-0.007592592592592592,-0.019,0.0016296296296296295,-0.04055555555555555,0.02062962962962963,-0.04814814814814815,0.1708148148148148,-0.0682962962962963,0.24159259259259258,-0.17044444444444445,0.2422962962962963,-0.17144444444444443,0.011407407407407406,-0.016888888888888887,0.03440740740740741,-0.021370370370370366,0.051370370370370365,-0.01,0.016925925925925924,0.011407407407407406,0.021518518518518517,0.03425925925925926,0.010185185185185186,0.05122222222222222,-0.003296296296296296,0.004925925925925926,-0.08266666666666667,0.12159259259259259,-0.27629629629629626,0.199037037037037
C 23.040809327846365,5.388722908093278,23.0361426611797,5.3895747599451305,23.031550068587105,5.3895747599451305
z "/>
	<path fill="#5DADEC" d="M 23.698216735253773,5.426611796982168
h 0.14814814814814814
v 0.7037037037037037
l -0.14814814814814814,-0.0017037037037037036
V 5.426611796982168
z 
M 23.10562414266118,6.130315500685871
l 0.14814814814814814,-0.0014814814814814814
V 5.426611796982168
H 23.10562414266118
v 0.7037037037037037
z "/>
	<path fill="#664500" d="M 23.3648463648834,5.500685871056242
c -0.005555555555555555,0,-0.011222222222222222,-0.0012592592592592592,-0.01651851851851852,-0.0038888888888888883,-0.13007407407407406,-0.06503703703703703,-0.26185185185185184,-0.0006666666666666665,-0.26314814814814813,0,-0.018333333333333333,0.009222222222222222,-0.04055555555555555,0.0017037037037037036,-0.0497037037037037,-0.016555555555555556,-0.009148148148148148,-0.018296296296296297,-0.0017407407407407406,-0.04055555555555555,0.016555555555555556,-0.0497037037037037,0.00674074074074074,-0.003333333333333333,0.1665925925925926,-0.08137037037037037,0.32944444444444443,0,0.018296296296296297,0.009148148148148148,0.0257037037037037,0.031407407407407405,0.016555555555555556,0.0497037037037037,-0.006518518518518518,0.01296296296296296,-0.019592592592592592,0.020444444444444446,-0.033185185185185186,0.020444444444444446
z 
m 0.5185185185185185,0
c -0.005555555555555555,0,-0.011222222222222222,-0.0012592592592592592,-0.01651851851851852,-0.0038888888888888883,-0.1301111111111111,-0.06503703703703703,-0.26185185185185184,-0.0006666666666666665,-0.26314814814814813,0,-0.018296296296296297,0.009185185185185185,-0.040518518518518516,0.0017407407407407406,-0.0497037037037037,-0.016555555555555556,-0.009148148148148148,-0.018296296296296297,-0.0017407407407407406,-0.04055555555555555,0.016555555555555556,-0.0497037037037037,0.00674074074074074,-0.003333333333333333,0.16670370370370372,-0.08133333333333334,0.32944444444444443,0,0.018296296296296297,0.009148148148148148,0.0257037037037037,0.031407407407407405,0.016555555555555556,0.0497037037037037,-0.006518518518518518,0.01296296296296296,-0.019592592592592592,0.020444444444444446,-0.033185185185185186,0.020444444444444446
z "/>
	<ellipse fill="#5DADEC"  cx="23.47599451303155" cy="6.093278463648835" rx="0.6666666666666666" ry="0.07407407407407407" />
	<ellipse fill="#E75A70" cx="23.47599451303155" cy="5.834019204389575" rx="0.1111111111111111" ry="0.07407407407407407" />
	<path fill="#664500" d="M 30.296296296296294,7.740740740740741
c 0,0.307,-0.19899999999999998,0.3333333333333333,-0.4444444444444444,0.3333333333333333,-0.24555555555555553,0,-0.4444444444444444,-0.02633333333333333,-0.4444444444444444,-0.3333333333333333,0,-0.30677777777777776,0.1988888888888889,-0.6666666666666666,0.4444444444444444,-0.6666666666666666,0.24544444444444444,0,0.4444444444444444,0.35988888888888887,0.4444444444444444,0.6666666666666666
z "/>
	<path fill="#5DADEC" d="M 30.51851851851852,6.518518518518519
h 0.4444444444444444
v 2.111111111111111
l -0.4444444444444444,-0.0051111111111111105
V 6.518518518518519
z 
M 28.74074074074074,8.62962962962963
l 0.4444444444444444,-0.0044444444444444444
V 6.518518518518519
H 28.74074074074074
v 2.111111111111111
z "/>
	<ellipse fill="#5DADEC"  cx="29.85185185185185" cy="8.518518518518519" rx="2" ry="0.2222222222222222" />
	<ellipse fill="#E75A70" cx="29.85185185185185" cy="7.740740740740741" rx="0.3333333333333333" ry="0.2222222222222222" />
	<path fill="#664500" d="M 28.672153635116597,5.834019204389575
c 0,0.10233333333333332,-0.06633333333333333,0.1111111111111111,-0.14814814814814814,0.1111111111111111,-0.08185185185185184,0,-0.14814814814814814,-0.008777777777777777,-0.14814814814814814,-0.1111111111111111,0,-0.10225925925925926,0.0662962962962963,-0.2222222222222222,0.14814814814814814,-0.2222222222222222,0.08181481481481481,0,0.14814814814814814,0.11996296296296295,0.14814814814814814,0.2222222222222222
z "/>
	<path fill="#664500" d="M 28.672153635116597,5.834019204389575
m 0.2962962962962963,-0.4444444444444444
c -0.0045925925925925926,0,-0.009259259259259259,-0.0008518518518518518,-0.013740740740740739,-0.002666666666666666,-0.19366666666666665,-0.07744444444444444,-0.273037037037037,-0.1941111111111111,-0.2763333333333333,-0.199037037037037,-0.01137037037037037,-0.017037037037037038,-0.0067777777777777775,-0.04003703703703703,0.01025925925925926,-0.051370370370370365,0.017,-0.011333333333333332,0.03988888888888888,-0.006814814814814814,0.05129629629629629,0.01014814814814815,0.0007037037037037037,0.001,0.07148148148148148,0.10314814814814814,0.24225925925925926,0.17144444444444443,0.019,0.007629629629629629,0.02825925925925926,0.02914814814814815,0.020666666666666667,0.04814814814814815,-0.005814814814814814,0.014518518518518517,-0.01974074074074074,0.02333333333333333,-0.03440740740740741,0.02333333333333333
z 
M 28.079561042524006,5.3895747599451305
c -0.014703703703703703,0,-0.028592592592592593,-0.008814814814814814,-0.03440740740740741,-0.023296296296296294,-0.007592592592592592,-0.019,0.0016296296296296295,-0.04055555555555555,0.02062962962962963,-0.04814814814814815,0.1708148148148148,-0.0682962962962963,0.24159259259259258,-0.17044444444444445,0.2422962962962963,-0.17144444444444443,0.011407407407407406,-0.016888888888888887,0.03440740740740741,-0.021370370370370366,0.051370370370370365,-0.01,0.016925925925925924,0.011407407407407406,0.021518518518518517,0.03425925925925926,0.010185185185185186,0.05122222222222222,-0.003296296296296296,0.004925925925925926,-0.08266666666666667,0.12159259259259259,-0.27629629629629626,0.199037037037037
C 28.088820301783265,5.388722908093278,28.0841536351166,5.3895747599451305,28.079561042524006,5.3895747599451305
z "/>
	<path fill="#5DADEC" d="M 28.746227709190673,5.426611796982168
h 0.14814814814814814
v 0.7037037037037037
l -0.14814814814814814,-0.0017037037037037036
V 5.426611796982168
z 
M 28.153635116598082,6.130315500685871
l 0.14814814814814814,-0.0014814814814814814
V 5.426611796982168
H 28.153635116598082
v 0.7037037037037037
z "/>
	<path fill="#664500" d="M 28.412857338820302,5.500685871056242
c -0.005555555555555555,0,-0.011222222222222222,-0.0012592592592592592,-0.01651851851851852,-0.0038888888888888883,-0.13007407407407406,-0.06503703703703703,-0.26185185185185184,-0.0006666666666666665,-0.26314814814814813,0,-0.018333333333333333,0.009222222222222222,-0.04055555555555555,0.0017037037037037036,-0.0497037037037037,-0.016555555555555556,-0.009148148148148148,-0.018296296296296297,-0.0017407407407407406,-0.04055555555555555,0.016555555555555556,-0.0497037037037037,0.00674074074074074,-0.003333333333333333,0.1665925925925926,-0.08137037037037037,0.32944444444444443,0,0.018296296296296297,0.009148148148148148,0.0257037037037037,0.031407407407407405,0.016555555555555556,0.0497037037037037,-0.006518518518518518,0.01296296296296296,-0.019592592592592592,0.020444444444444446,-0.033185185185185186,0.020444444444444446
z 
m 0.5185185185185185,0
c -0.005555555555555555,0,-0.011222222222222222,-0.0012592592592592592,-0.01651851851851852,-0.0038888888888888883,-0.1301111111111111,-0.06503703703703703,-0.26185185185185184,-0.0006666666666666665,-0.26314814814814813,0,-0.018296296296296297,0.009185185185185185,-0.040518518518518516,0.0017407407407407406,-0.0497037037037037,-0.016555555555555556,-0.009148148148148148,-0.018296296296296297,-0.0017407407407407406,-0.04055555555555555,0.016555555555555556,-0.0497037037037037,0.00674074074074074,-0.003333333333333333,0.16670370370370372,-0.08133333333333334,0.32944444444444443,0,0.018296296296296297,0.009148148148148148,0.0257037037037037,0.031407407407407405,0.016555555555555556,0.0497037037037037,-0.006518518518518518,0.01296296296296296,-0.019592592592592592,0.020444444444444446,-0.033185185185185186,0.020444444444444446
z "/>
	<ellipse fill="#5DADEC"  cx="28.524005486968452" cy="6.093278463648835" rx="0.6666666666666666" ry="0.07407407407407407" />
	<ellipse fill="#E75A70" cx="28.524005486968452" cy="5.834019204389575" rx="0.1111111111111111" ry="0.07407407407407407" />
	<path fill="#664500" d="M 31.3278463648834,5.834019204389575
c 0,0.10233333333333332,-0.06633333333333333,0.1111111111111111,-0.14814814814814814,0.1111111111111111,-0.08185185185185184,0,-0.14814814814814814,-0.008777777777777777,-0.14814814814814814,-0.1111111111111111,0,-0.10225925925925926,0.0662962962962963,-0.2222222222222222,0.14814814814814814,-0.2222222222222222,0.08181481481481481,0,0.14814814814814814,0.11996296296296295,0.14814814814814814,0.2222222222222222
z "/>
	<path fill="#664500" d="M 31.3278463648834,5.834019204389575
m 0.2962962962962963,-0.4444444444444444
c -0.0045925925925925926,0,-0.009259259259259259,-0.0008518518518518518,-0.013740740740740739,-0.002666666666666666,-0.19366666666666665,-0.07744444444444444,-0.273037037037037,-0.1941111111111111,-0.2763333333333333,-0.199037037037037,-0.01137037037037037,-0.017037037037037038,-0.0067777777777777775,-0.04003703703703703,0.01025925925925926,-0.051370370370370365,0.017,-0.011333333333333332,0.03988888888888888,-0.006814814814814814,0.05129629629629629,0.01014814814814815,0.0007037037037037037,0.001,0.07148148148148148,0.10314814814814814,0.24225925925925926,0.17144444444444443,0.019,0.007629629629629629,0.02825925925925926,0.02914814814814815,0.020666666666666667,0.04814814814814815,-0.005814814814814814,0.014518518518518517,-0.01974074074074074,0.02333333333333333,-0.03440740740740741,0.02333333333333333
z 
M 30.735253772290807,5.3895747599451305
c -0.014703703703703703,0,-0.028592592592592593,-0.008814814814814814,-0.03440740740740741,-0.023296296296296294,-0.007592592592592592,-0.019,0.0016296296296296295,-0.04055555555555555,0.02062962962962963,-0.04814814814814815,0.1708148148148148,-0.0682962962962963,0.24159259259259258,-0.17044444444444445,0.2422962962962963,-0.17144444444444443,0.011407407407407406,-0.016888888888888887,0.03440740740740741,-0.021370370370370366,0.051370370370370365,-0.01,0.016925925925925924,0.011407407407407406,0.021518518518518517,0.03425925925925926,0.010185185185185186,0.05122222222222222,-0.003296296296296296,0.004925925925925926,-0.08266666666666667,0.12159259259259259,-0.27629629629629626,0.199037037037037
C 30.744513031550067,5.388722908093278,30.7398463648834,5.3895747599451305,30.735253772290807,5.3895747599451305
z "/>
	<path fill="#5DADEC" d="M 31.401920438957475,5.426611796982168
h 0.14814814814814814
v 0.7037037037037037
l -0.14814814814814814,-0.0017037037037037036
V 5.426611796982168
z 
M 30.809327846364884,6.130315500685871
l 0.14814814814814814,-0.0014814814814814814
V 5.426611796982168
H 30.809327846364884
v 0.7037037037037037
z "/>
	<path fill="#664500" d="M 31.068550068587104,5.500685871056242
c -0.005555555555555555,0,-0.011222222222222222,-0.0012592592592592592,-0.01651851851851852,-0.0038888888888888883,-0.13007407407407406,-0.06503703703703703,-0.26185185185185184,-0.0006666666666666665,-0.26314814814814813,0,-0.018333333333333333,0.009222222222222222,-0.04055555555555555,0.0017037037037037036,-0.0497037037037037,-0.016555555555555556,-0.009148148148148148,-0.018296296296296297,-0.0017407407407407406,-0.04055555555555555,0.016555555555555556,-0.0497037037037037,0.00674074074074074,-0.003333333333333333,0.1665925925925926,-0.08137037037037037,0.32944444444444443,0,0.018296296296296297,0.009148148148148148,0.0257037037037037,0.031407407407407405,0.016555555555555556,0.0497037037037037,-0.006518518518518518,0.01296296296296296,-0.019592592592592592,0.020444444444444446,-0.033185185185185186,0.020444444444444446
z 
m 0.5185185185185185,0
c -0.005555555555555555,0,-0.011222222222222222,-0.0012592592592592592,-0.01651851851851852,-0.0038888888888888883,-0.1301111111111111,-0.06503703703703703,-0.26185185185185184,-0.0006666666666666665,-0.26314814814814813,0,-0.018296296296296297,0.009185185185185185,-0.040518518518518516,0.0017407407407407406,-0.0497037037037037,-0.016555555555555556,-0.009148148148148148,-0.018296296296296297,-0.0017407407407407406,-0.04055555555555555,0.016555555555555556,-0.0497037037037037,0.00674074074074074,-0.003333333333333333,0.16670370370370372,-0.08133333333333334,0.32944444444444443,0,0.018296296296296297,0.009148148148148148,0.0257037037037037,0.031407407407407405,0.016555555555555556,0.0497037037037037,-0.006518518518518518,0.01296296296296296,-0.019592592592592592,0.020444444444444446,-0.033185185185185186,0.020444444444444446
z "/>
	<ellipse fill="#5DADEC"  cx="31.179698216735254" cy="6.093278463648835" rx="0.6666666666666666" ry="0.07407407407407407" />
	<ellipse fill="#E75A70" cx="31.179698216735254" cy="5.834019204389575" rx="0.1111111111111111" ry="0.07407407407407407" />
</svg>
